<svg xmlns="http://www.w3.org/2000/svg" viewBox="0 0 512 512">
  <defs>
    <linearGradient id="bg" x1="0" y1="0" x2="1" y2="1">
      <stop offset="0" stop-color="#f0955a"/>
      <stop offset="1" stop-color="#e2662f"/>
    </linearGradient>
  </defs>
  <rect width="512" height="512" rx="115" fill="url(#bg)"/>
  <g fill="#fffdf9" transform="translate(256 266) scale(1) translate(-256 -266)">
    <ellipse cx="143" cy="235" rx="40" ry="52" transform="rotate(-24 143 235)"/>
    <ellipse cx="217" cy="172" rx="43" ry="56" transform="rotate(-7 217 172)"/>
    <ellipse cx="295" cy="172" rx="43" ry="56" transform="rotate(7 295 172)"/>
    <ellipse cx="369" cy="235" rx="40" ry="52" transform="rotate(24 369 235)"/>
    <path d="M256 260c58 0 104 38 104 88 0 34-26 52-52 52-20 0-34-9-52-9s-32 9-52 9c-26 0-52-18-52-52 0-50 46-88 104-88z"/>
  </g>
</svg>